<svg xmlns="http://www.w3.org/2000/svg" viewBox="0 0 24 24">
  <g transform="translate(-2458 -1456)">
    <g transform="translate(2462 1456.991)" style="isolation: isolate">
      <path d="M3.939,16.723H3.621L3.362,19h-.9l.259-2.362A8.354,8.354,0,0,1,0,15.921l.477-1.413a7.678,7.678,0,0,0,2.427.7l.577-5.124-.935-.548A4.35,4.35,0,0,1,.509,7.31,3.594,3.594,0,0,1,.3,6.073,4.116,4.116,0,0,1,.5,4.766a3.34,3.34,0,0,1,.916-1.413A4.367,4.367,0,0,1,4.4,2.277L4.655,0h.9L5.272,2.32a10.291,10.291,0,0,1,2.285.526h0l-.5,1.392q-.328-.111-.661-.207a6.234,6.234,0,0,0-1.289-.257L4.536,8.688l1.432.822a3.927,3.927,0,0,1,2.248,3.437,4.118,4.118,0,0,1-.191,1.287A3.277,3.277,0,0,1,7.053,15.7a3.914,3.914,0,0,1-1.558.827A5.787,5.787,0,0,1,3.939,16.723ZM10.047,4.871,19,10.08l-8.953,5.209V13.834l6.685-3.754L10.047,6.326ZM5.232,11.092l-.915-.527L3.78,15.246a2.975,2.975,0,0,0,2-.622,2.231,2.231,0,0,0,.443-.5,1.846,1.846,0,0,0,.284-1,2.118,2.118,0,0,0-.762-1.662A3.24,3.24,0,0,0,5.232,11.092ZM3.283,7.929l.418.253L4.218,3.8a3.328,3.328,0,0,0-.713.163,2.363,2.363,0,0,0-.79.46q-.061.055-.119.115a2.218,2.218,0,0,0-.385.535,1.874,1.874,0,0,0-.2.857A2.087,2.087,0,0,0,2.752,7.55a3.259,3.259,0,0,0,.531.379Z" transform="translate(0 1.009)" fill-rule="evenodd"/>
    </g>
    <rect width="24" height="24" transform="translate(2458 1456)" fill="none"/>
  </g>
</svg>
